<svg width="19" height="19" viewBox="0 0 19 19" xmlns="http://www.w3.org/2000/svg"><title>Oval 2 + Rectangle 1</title><g fill="none" fill-rule="evenodd"><path d="M17.472 12.89c-.727 1.79-2.034 3.363-3.838 4.404C9.33 19.78 3.824 18.304 1.34 14-1.146 9.695.33 4.19 4.634 1.706 6.444.66 8.464.316 10.384.586L9.338 2.503c-1.256-.038-2.536.262-3.704.936C2.286 5.37 1.14 9.652 3.072 13c1.933 3.348 6.214 4.495 9.562 2.562 1.155-.667 2.048-1.613 2.643-2.704l2.195.032z" fill="#768AA8"/><path d="M14.77 5.09L8.63 8.637c-.467.27-.638.886-.362 1.364.278.482.886.643 1.362.368l6.14-3.545-.753 2.812c-.146.546.173 1.085.706 1.228.537.144 1.082-.175 1.226-.71l1.29-4.824c.097-.357-.006-.71-.236-.95-.094-.322-.35-.586-.704-.682l-4.824-1.292c-.535-.144-1.084.17-1.228.706-.143.534.165 1.08.71 1.226l2.812.753z" fill="#8AA3FF"/></g></svg>